<svg xmlns="http://www.w3.org/2000/svg" width="700" height="760" viewBox="0 0 700 760" font-family="Georgia, serif">
<rect width="700" height="760" fill="#fafaf8"/>
<text x="350" y="28" text-anchor="middle" font-size="18" font-weight="bold" fill="#1a1a2e">NT Innovation Index — All Books</text>
<text x="350" y="48" text-anchor="middle" font-size="11" fill="#777">Radar overlay by profile tier</text>
<polygon points="350.0,302.5 378.8,310.2 399.8,331.2 407.5,360.0 399.8,388.8 378.8,409.8 350.0,417.5 321.2,409.8 300.2,388.8 292.5,360.0 300.2,331.2 321.2,310.2" fill="none" stroke="#ddd" stroke-width="0.6"/>
<polygon points="350.0,245.0 407.5,260.4 449.6,302.5 465.0,360.0 449.6,417.5 407.5,459.6 350.0,475.0 292.5,459.6 250.4,417.5 235.0,360.0 250.4,302.5 292.5,260.4" fill="none" stroke="#ddd" stroke-width="0.6"/>
<polygon points="350.0,187.5 436.2,210.6 499.4,273.8 522.5,360.0 499.4,446.2 436.2,509.4 350.0,532.5 263.8,509.4 200.6,446.3 177.5,360.0 200.6,273.8 263.7,210.6" fill="none" stroke="#ddd" stroke-width="0.6"/>
<polygon points="350.0,130.0 465.0,160.8 549.2,245.0 580.0,360.0 549.2,475.0 465.0,559.2 350.0,590.0 235.0,559.2 150.8,475.0 120.0,360.0 150.8,245.0 235.0,160.8" fill="none" stroke="#ddd" stroke-width="1.5"/>
<line x1="350.0" y1="360.0" x2="350.0" y2="130.0" stroke="#ddd" stroke-width="0.6"/>
<line x1="350.0" y1="360.0" x2="465.0" y2="160.8" stroke="#ddd" stroke-width="0.6"/>
<line x1="350.0" y1="360.0" x2="549.2" y2="245.0" stroke="#ddd" stroke-width="0.6"/>
<line x1="350.0" y1="360.0" x2="580.0" y2="360.0" stroke="#ddd" stroke-width="0.6"/>
<line x1="350.0" y1="360.0" x2="549.2" y2="475.0" stroke="#ddd" stroke-width="0.6"/>
<line x1="350.0" y1="360.0" x2="465.0" y2="559.2" stroke="#ddd" stroke-width="0.6"/>
<line x1="350.0" y1="360.0" x2="350.0" y2="590.0" stroke="#ddd" stroke-width="0.6"/>
<line x1="350.0" y1="360.0" x2="235.0" y2="559.2" stroke="#ddd" stroke-width="0.6"/>
<line x1="350.0" y1="360.0" x2="150.8" y2="475.0" stroke="#ddd" stroke-width="0.6"/>
<line x1="350.0" y1="360.0" x2="120.0" y2="360.0" stroke="#ddd" stroke-width="0.6"/>
<line x1="350.0" y1="360.0" x2="150.8" y2="245.0" stroke="#ddd" stroke-width="0.6"/>
<line x1="350.0" y1="360.0" x2="235.0" y2="160.8" stroke="#ddd" stroke-width="0.6"/>
<text x="350.0" y="97.8" text-anchor="middle" font-size="9" fill="#555"><tspan x="350.0" dy="-4">Keeper</tspan><tspan x="350.0" dy="1em">Obligation</tspan></text>
<text x="481.1" y="132.9" text-anchor="start" font-size="9" fill="#555"><tspan x="481.1" dy="-4">Kingdom</tspan><tspan x="481.1" dy="1em">Non-hierarchy</tspan></text>
<text x="577.1" y="228.9" text-anchor="start" font-size="9" fill="#555"><tspan x="577.1" dy="-4">Israel</tspan><tspan x="577.1" dy="1em">Continuity</tspan></text>
<text x="612.2" y="360.0" text-anchor="start" font-size="9" fill="#555"><tspan x="612.2" dy="-4">Creation</tspan><tspan x="612.2" dy="1em">Ground</tspan></text>
<text x="577.1" y="491.1" text-anchor="start" font-size="9" fill="#555"><tspan x="577.1" dy="-4">Christological</tspan><tspan x="577.1" dy="1em">Recomposition</tspan></text>
<text x="481.1" y="587.1" text-anchor="start" font-size="9" fill="#555"><tspan x="481.1" dy="-4">Eschatological</tspan><tspan x="481.1" dy="1em">Deferral</tspan></text>
<text x="350.0" y="622.2" text-anchor="middle" font-size="9" fill="#555"><tspan x="350.0" dy="-4">Orthodoxy</tspan><tspan x="350.0" dy="1em">Production</tspan></text>
<text x="218.9" y="587.1" text-anchor="end" font-size="9" fill="#555"><tspan x="218.9" dy="-4">Domination</tspan><tspan x="218.9" dy="1em">Accommodation</tspan></text>
<text x="122.9" y="491.1" text-anchor="end" font-size="9" fill="#555"><tspan x="122.9" dy="-4">Hierarchy</tspan><tspan x="122.9" dy="1em">Building</tspan></text>
<text x="87.8" y="360.0" text-anchor="end" font-size="9" fill="#555"><tspan x="87.8" dy="-4">Semantic</tspan><tspan x="87.8" dy="1em">Shift</tspan></text>
<text x="122.9" y="228.9" text-anchor="end" font-size="9" fill="#555"><tspan x="122.9" dy="-4">Collocational</tspan><tspan x="122.9" dy="1em">Innovation</tspan></text>
<text x="218.9" y="132.9" text-anchor="end" font-size="9" fill="#555"><tspan x="218.9" dy="-4">Extra-LXX</tspan><tspan x="218.9" dy="1em">Dependence</tspan></text>
<polygon points="350.0,360.0 350.0,360.0 350.0,360.0 350.0,360.0 350.0,360.0 350.0,360.0 350.0,360.0 350.0,360.0 350.0,360.0 350.0,360.0 350.0,360.0 350.0,360.0" fill="#1a6b2f" fill-opacity="0.12" stroke="#1a6b2f" stroke-width="1.2" stroke-linejoin="round"><title>Jas (26.4) — lxx_anchored</title></polygon>
<polygon points="350.0,360.0 350.0,360.0 350.0,360.0 350.0,360.0 350.0,360.0 350.0,360.0 350.0,360.0 350.0,360.0 350.0,360.0 350.0,360.0 350.0,360.0 350.0,360.0" fill="#4a9e5c" fill-opacity="0.12" stroke="#4a9e5c" stroke-width="1.2" stroke-linejoin="round"><title>Luke (30.4) — constrained_departure</title></polygon>
<polygon points="350.0,360.0 350.0,360.0 350.0,360.0 350.0,360.0 350.0,360.0 350.0,360.0 350.0,360.0 350.0,360.0 350.0,360.0 350.0,360.0 350.0,360.0 350.0,360.0" fill="#4a9e5c" fill-opacity="0.12" stroke="#4a9e5c" stroke-width="1.2" stroke-linejoin="round"><title>Mark (30.4) — constrained_departure</title></polygon>
<polygon points="350.0,360.0 350.0,360.0 350.0,360.0 350.0,360.0 350.0,360.0 350.0,360.0 350.0,360.0 350.0,360.0 350.0,360.0 350.0,360.0 350.0,360.0 350.0,360.0" fill="#4a9e5c" fill-opacity="0.12" stroke="#4a9e5c" stroke-width="1.2" stroke-linejoin="round"><title>Phlm (35.1) — constrained_departure</title></polygon>
<polygon points="350.0,360.0 350.0,360.0 350.0,360.0 350.0,360.0 350.0,360.0 350.0,360.0 350.0,360.0 350.0,360.0 350.0,360.0 350.0,360.0 350.0,360.0 350.0,360.0" fill="#4a9e5c" fill-opacity="0.12" stroke="#4a9e5c" stroke-width="1.2" stroke-linejoin="round"><title>3John (35.2) — constrained_departure</title></polygon>
<polygon points="350.0,360.0 350.0,360.0 350.0,360.0 350.0,360.0 350.0,360.0 350.0,360.0 350.0,360.0 350.0,360.0 350.0,360.0 350.0,360.0 350.0,360.0 350.0,360.0" fill="#4a9e5c" fill-opacity="0.12" stroke="#4a9e5c" stroke-width="1.2" stroke-linejoin="round"><title>Matt (35.9) — constrained_departure</title></polygon>
<polygon points="350.0,360.0 350.0,360.0 350.0,360.0 350.0,360.0 350.0,360.0 350.0,360.0 350.0,360.0 350.0,360.0 350.0,360.0 350.0,360.0 350.0,360.0 350.0,360.0" fill="#4a9e5c" fill-opacity="0.12" stroke="#4a9e5c" stroke-width="1.2" stroke-linejoin="round"><title>Acts (36.2) — constrained_departure</title></polygon>
<polygon points="350.0,360.0 350.0,360.0 350.0,360.0 350.0,360.0 350.0,360.0 350.0,360.0 350.0,360.0 350.0,360.0 350.0,360.0 350.0,360.0 350.0,360.0 350.0,360.0" fill="#4a9e5c" fill-opacity="0.12" stroke="#4a9e5c" stroke-width="1.2" stroke-linejoin="round"><title>2John (37.5) — constrained_departure</title></polygon>
<polygon points="350.0,360.0 350.0,360.0 350.0,360.0 350.0,360.0 350.0,360.0 350.0,360.0 350.0,360.0 350.0,360.0 350.0,360.0 350.0,360.0 350.0,360.0 350.0,360.0" fill="#f5a623" fill-opacity="0.12" stroke="#f5a623" stroke-width="1.2" stroke-linejoin="round"><title>1Thess (38.1) — selective_recomposition</title></polygon>
<polygon points="350.0,360.0 350.0,360.0 350.0,360.0 350.0,360.0 350.0,360.0 350.0,360.0 350.0,360.0 350.0,360.0 350.0,360.0 350.0,360.0 350.0,360.0 350.0,360.0" fill="#f5a623" fill-opacity="0.12" stroke="#f5a623" stroke-width="1.2" stroke-linejoin="round"><title>Rev (39.1) — selective_recomposition</title></polygon>
<polygon points="350.0,360.0 350.0,360.0 350.0,360.0 350.0,360.0 350.0,360.0 350.0,360.0 350.0,360.0 350.0,360.0 350.0,360.0 350.0,360.0 350.0,360.0 350.0,360.0" fill="#f5a623" fill-opacity="0.12" stroke="#f5a623" stroke-width="1.2" stroke-linejoin="round"><title>Gal (39.2) — selective_recomposition</title></polygon>
<polygon points="350.0,360.0 350.0,360.0 350.0,360.0 350.0,360.0 350.0,360.0 350.0,360.0 350.0,360.0 350.0,360.0 350.0,360.0 350.0,360.0 350.0,360.0 350.0,360.0" fill="#f5a623" fill-opacity="0.12" stroke="#f5a623" stroke-width="1.2" stroke-linejoin="round"><title>1John (39.5) — selective_recomposition</title></polygon>
<polygon points="350.0,360.0 350.0,360.0 350.0,360.0 350.0,360.0 350.0,360.0 350.0,360.0 350.0,360.0 350.0,360.0 350.0,360.0 350.0,360.0 350.0,360.0 350.0,360.0" fill="#f5a623" fill-opacity="0.12" stroke="#f5a623" stroke-width="1.2" stroke-linejoin="round"><title>1Pet (39.6) — selective_recomposition</title></polygon>
<polygon points="350.0,360.0 350.0,360.0 350.0,360.0 350.0,360.0 350.0,360.0 350.0,360.0 350.0,360.0 350.0,360.0 350.0,360.0 350.0,360.0 350.0,360.0 350.0,360.0" fill="#f5a623" fill-opacity="0.12" stroke="#f5a623" stroke-width="1.2" stroke-linejoin="round"><title>Jude (40.6) — selective_recomposition</title></polygon>
<polygon points="350.0,360.0 350.0,360.0 350.0,360.0 350.0,360.0 350.0,360.0 350.0,360.0 350.0,360.0 350.0,360.0 350.0,360.0 350.0,360.0 350.0,360.0 350.0,360.0" fill="#f5a623" fill-opacity="0.12" stroke="#f5a623" stroke-width="1.2" stroke-linejoin="round"><title>Eph (41.2) — selective_recomposition</title></polygon>
<polygon points="350.0,360.0 350.0,360.0 350.0,360.0 350.0,360.0 350.0,360.0 350.0,360.0 350.0,360.0 350.0,360.0 350.0,360.0 350.0,360.0 350.0,360.0 350.0,360.0" fill="#f5a623" fill-opacity="0.12" stroke="#f5a623" stroke-width="1.2" stroke-linejoin="round"><title>Phil (43.0) — selective_recomposition</title></polygon>
<polygon points="350.0,360.0 350.0,360.0 350.0,360.0 350.0,360.0 350.0,360.0 350.0,360.0 350.0,360.0 350.0,360.0 350.0,360.0 350.0,360.0 350.0,360.0 350.0,360.0" fill="#f5a623" fill-opacity="0.12" stroke="#f5a623" stroke-width="1.2" stroke-linejoin="round"><title>John (44.0) — selective_recomposition</title></polygon>
<polygon points="350.0,360.0 350.0,360.0 350.0,360.0 350.0,360.0 350.0,360.0 350.0,360.0 350.0,360.0 350.0,360.0 350.0,360.0 350.0,360.0 350.0,360.0 350.0,360.0" fill="#e07020" fill-opacity="0.12" stroke="#e07020" stroke-width="1.2" stroke-linejoin="round"><title>Heb (44.2) — composite_recomposition</title></polygon>
<polygon points="350.0,360.0 350.0,360.0 350.0,360.0 350.0,360.0 350.0,360.0 350.0,360.0 350.0,360.0 350.0,360.0 350.0,360.0 350.0,360.0 350.0,360.0 350.0,360.0" fill="#e07020" fill-opacity="0.12" stroke="#e07020" stroke-width="1.2" stroke-linejoin="round"><title>2Thess (45.1) — composite_recomposition</title></polygon>
<polygon points="350.0,360.0 350.0,360.0 350.0,360.0 350.0,360.0 350.0,360.0 350.0,360.0 350.0,360.0 350.0,360.0 350.0,360.0 350.0,360.0 350.0,360.0 350.0,360.0" fill="#e07020" fill-opacity="0.12" stroke="#e07020" stroke-width="1.2" stroke-linejoin="round"><title>1Cor (45.7) — composite_recomposition</title></polygon>
<polygon points="350.0,360.0 350.0,360.0 350.0,360.0 350.0,360.0 350.0,360.0 350.0,360.0 350.0,360.0 350.0,360.0 350.0,360.0 350.0,360.0 350.0,360.0 350.0,360.0" fill="#e07020" fill-opacity="0.12" stroke="#e07020" stroke-width="1.2" stroke-linejoin="round"><title>Col (45.7) — composite_recomposition</title></polygon>
<polygon points="350.0,360.0 350.0,360.0 350.0,360.0 350.0,360.0 350.0,360.0 350.0,360.0 350.0,360.0 350.0,360.0 350.0,360.0 350.0,360.0 350.0,360.0 350.0,360.0" fill="#e07020" fill-opacity="0.12" stroke="#e07020" stroke-width="1.2" stroke-linejoin="round"><title>Rom (46.0) — composite_recomposition</title></polygon>
<polygon points="350.0,360.0 350.0,360.0 350.0,360.0 350.0,360.0 350.0,360.0 350.0,360.0 350.0,360.0 350.0,360.0 350.0,360.0 350.0,360.0 350.0,360.0 350.0,360.0" fill="#e07020" fill-opacity="0.12" stroke="#e07020" stroke-width="1.2" stroke-linejoin="round"><title>2Cor (46.5) — composite_recomposition</title></polygon>
<polygon points="350.0,360.0 350.0,360.0 350.0,360.0 350.0,360.0 350.0,360.0 350.0,360.0 350.0,360.0 350.0,360.0 350.0,360.0 350.0,360.0 350.0,360.0 350.0,360.0" fill="#c0392b" fill-opacity="0.12" stroke="#c0392b" stroke-width="1.2" stroke-linejoin="round"><title>Titus (52.8) — institutional_innovation</title></polygon>
<polygon points="350.0,360.0 350.0,360.0 350.0,360.0 350.0,360.0 350.0,360.0 350.0,360.0 350.0,360.0 350.0,360.0 350.0,360.0 350.0,360.0 350.0,360.0 350.0,360.0" fill="#c0392b" fill-opacity="0.12" stroke="#c0392b" stroke-width="1.2" stroke-linejoin="round"><title>2Pet (54.7) — institutional_innovation</title></polygon>
<polygon points="350.0,360.0 350.0,360.0 350.0,360.0 350.0,360.0 350.0,360.0 350.0,360.0 350.0,360.0 350.0,360.0 350.0,360.0 350.0,360.0 350.0,360.0 350.0,360.0" fill="#c0392b" fill-opacity="0.12" stroke="#c0392b" stroke-width="1.2" stroke-linejoin="round"><title>2Tim (56.8) — institutional_innovation</title></polygon>
<polygon points="350.0,360.0 350.0,360.0 350.0,360.0 350.0,360.0 350.0,360.0 350.0,360.0 350.0,360.0 350.0,360.0 350.0,360.0 350.0,360.0 350.0,360.0 350.0,360.0" fill="#7b0000" fill-opacity="0.12" stroke="#7b0000" stroke-width="1.2" stroke-linejoin="round"><title>1Tim (59.4) — systemic_recomposition</title></polygon>
<rect x="20" y="640" width="660" height="100" fill="#f4f4f4" rx="6"/>
<text x="350" y="658" text-anchor="middle" font-size="11" fill="#333" font-weight="bold">Profile tiers</text>
<rect x="30" y="668" width="12" height="12" fill="#1a6b2f"/>
<text x="46" y="678" font-size="9" fill="#1a6b2f">lxx anchored</text>
<rect x="138" y="668" width="12" height="12" fill="#4a9e5c"/>
<text x="154" y="678" font-size="9" fill="#4a9e5c">constrained departure</text>
<rect x="246" y="668" width="12" height="12" fill="#f5a623"/>
<text x="262" y="678" font-size="9" fill="#f5a623">selective recomposition</text>
<rect x="354" y="668" width="12" height="12" fill="#e07020"/>
<text x="370" y="678" font-size="9" fill="#e07020">composite recomposition</text>
<rect x="462" y="668" width="12" height="12" fill="#c0392b"/>
<text x="478" y="678" font-size="9" fill="#c0392b">institutional innovation</text>
<rect x="570" y="668" width="12" height="12" fill="#7b0000"/>
<text x="586" y="678" font-size="9" fill="#7b0000">systemic recomposition</text>
</svg>